<?xml version="1.0" standalone="no"?>
<!DOCTYPE svg PUBLIC "-//W3C//DTD SVG 20010904//EN"
 "http://www.w3.org/TR/2001/REC-SVG-20010904/DTD/svg10.dtd">
<svg version="1.0" xmlns="http://www.w3.org/2000/svg"
 width="2430.000000pt" height="1220.000000pt" viewBox="0 0 2430.000000 1220.000000"
 preserveAspectRatio="xMidYMid meet">

<g transform="translate(0.000000,1220.000000) scale(0.100000,-0.100000)"
fill="#000000" stroke="none">
<path d="M15360 7089 c-72 -12 -167 -57 -209 -100 -19 -19 -46 -59 -60 -89
-23 -49 -26 -67 -26 -171 0 -109 2 -119 30 -175 49 -95 118 -132 370 -201 210
-56 258 -92 276 -204 20 -122 -20 -212 -110 -252 -96 -42 -311 -41 -499 3 -46
11 -85 20 -88 20 -2 0 -4 -36 -4 -79 l0 -79 69 -16 c172 -39 419 -45 537 -12
181 49 266 164 268 356 2 253 -75 330 -419 421 -125 33 -198 64 -227 95 -44
50 -46 194 -4 256 31 46 73 67 159 78 87 11 248 -1 340 -25 90 -23 87 -25 87
60 l0 74 -52 15 c-115 33 -318 44 -438 25z"/>
<path d="M16615 7085 c-231 -43 -375 -186 -431 -430 -26 -112 -26 -394 -1
-515 37 -171 119 -296 235 -358 101 -54 168 -66 352 -66 144 1 175 4 245 25
l80 24 3 78 c3 78 3 79 -20 71 -88 -28 -139 -36 -258 -41 -203 -8 -312 27
-387 125 -70 92 -107 317 -85 521 24 237 98 350 261 402 89 29 291 29 399 1
l73 -19 -3 81 -3 81 -55 13 c-87 20 -311 24 -405 7z"/>
<path d="M17755 7091 c-130 -22 -195 -51 -271 -122 -109 -104 -164 -291 -164
-564 0 -273 55 -460 164 -564 104 -98 195 -125 416 -125 221 0 312 27 416 125
108 103 164 294 164 564 0 270 -56 461 -164 564 -96 90 -185 120 -381 126 -71
2 -152 0 -180 -4z m336 -170 c158 -61 220 -239 206 -591 -12 -283 -66 -393
-220 -447 -80 -28 -292 -25 -368 5 -65 26 -120 75 -150 134 -66 129 -77 524
-20 709 22 71 80 148 132 174 64 34 132 45 249 41 88 -2 128 -8 171 -25z"/>
<path d="M13200 6405 l0 -677 278 4 c304 5 375 16 485 75 114 61 204 183 242
329 38 144 38 406 0 555 -36 142 -126 263 -234 318 -104 54 -175 64 -483 69
l-288 4 0 -677z m505 515 c65 -10 168 -51 206 -82 37 -31 89 -112 108 -170 28
-85 41 -234 31 -355 -21 -240 -117 -367 -310 -413 -32 -8 -119 -14 -210 -14
l-155 -1 -3 523 -2 522 132 0 c73 0 165 -5 203 -10z"/>
<path d="M14560 6405 l0 -675 85 0 85 0 0 675 0 675 -85 0 -85 0 0 -675z"/>
<path d="M18880 6433 c120 -357 223 -660 229 -675 l11 -28 107 0 108 0 155
452 c85 249 189 553 231 675 l77 223 -89 0 -88 0 -191 -580 c-105 -319 -194
-580 -198 -580 -5 0 -59 156 -121 348 -62 191 -147 452 -188 580 l-76 232 -93
0 -93 0 219 -647z"/>
<path d="M20000 6405 l0 -675 400 0 401 0 -3 78 -3 77 -312 3 -313 2 0 235 0
235 270 0 270 0 0 75 0 75 -270 0 -270 0 0 205 0 205 288 2 287 3 3 78 3 77
-376 0 -375 0 0 -675z"/>
<path d="M21090 6400 l0 -680 85 0 85 0 0 275 0 275 118 0 119 0 185 -272 185
-273 96 -3 c69 -2 97 1 97 9 0 6 -87 133 -192 281 -106 149 -192 273 -190 277
1 3 28 15 59 25 87 29 155 101 183 195 19 62 22 90 18 195 -4 115 -6 128 -37
190 -73 149 -192 186 -592 186 l-219 0 0 -680z m465 520 c155 -22 210 -85 210
-240 0 -100 -22 -167 -66 -204 -51 -43 -117 -56 -286 -56 l-153 0 0 255 0 255
113 0 c61 0 144 -5 182 -10z"/>
<path d="M22322 6723 c122 -197 229 -371 239 -388 17 -27 19 -56 19 -317 l0
-288 85 0 85 0 0 290 0 290 239 383 239 382 -86 3 c-47 2 -91 1 -97 -2 -6 -2
-91 -139 -189 -305 -98 -166 -181 -301 -184 -301 -4 0 -88 137 -187 305 l-180
305 -102 0 -102 0 221 -357z"/>
</g>
</svg>
